<svg width="17" height="16" viewBox="0 0 17 16" fill="none" xmlns="http://www.w3.org/2000/svg">
<path d="M4.41699 7.58301C3.92454 7.58301 3.4369 7.48601 2.98193 7.29756C2.52696 7.1091 2.11356 6.83288 1.76534 6.48466C1.41712 6.13644 1.1409 5.72304 0.952444 5.26807C0.763989 4.8131 0.666992 4.32546 0.666992 3.83301C0.666992 3.34055 0.763989 2.85292 0.952444 2.39794C1.1409 1.94297 1.41712 1.52958 1.76534 1.18136C2.11356 0.833138 2.52696 0.556915 2.98193 0.36846C3.4369 0.180004 3.92454 0.0830078 4.41699 0.0830078C5.41155 0.0830078 6.36538 0.478096 7.06864 1.18136C7.7719 1.88462 8.16699 2.83845 8.16699 3.83301C8.16699 4.82757 7.7719 5.7814 7.06864 6.48466C6.36538 7.18792 5.41155 7.58301 4.41699 7.58301V7.58301ZM4.83366 15.9163C3.8391 15.9163 2.88527 15.5213 2.18201 14.818C1.47875 14.1147 1.08366 13.1609 1.08366 12.1663C1.08366 11.1718 1.47875 10.218 2.18201 9.51469C2.88527 8.81143 3.8391 8.41634 4.83366 8.41634C5.82822 8.41634 6.78205 8.81143 7.48531 9.51469C8.18857 10.218 8.58366 11.1718 8.58366 12.1663C8.58366 13.1609 8.18857 14.1147 7.48531 14.818C6.78205 15.5213 5.82822 15.9163 4.83366 15.9163V15.9163ZM13.167 7.58301C12.6745 7.58301 12.1869 7.48601 11.7319 7.29756C11.277 7.1091 10.8636 6.83288 10.5153 6.48466C10.1671 6.13644 9.8909 5.72304 9.70244 5.26807C9.51399 4.8131 9.41699 4.32546 9.41699 3.83301C9.41699 3.34055 9.51399 2.85292 9.70244 2.39794C9.8909 1.94297 10.1671 1.52958 10.5153 1.18136C10.8636 0.833138 11.277 0.556915 11.7319 0.36846C12.1869 0.180004 12.6745 0.0830078 13.167 0.0830078C14.1616 0.0830078 15.1154 0.478096 15.8186 1.18136C16.5219 1.88462 16.917 2.83845 16.917 3.83301C16.917 4.82757 16.5219 5.7814 15.8186 6.48466C15.1154 7.18792 14.1616 7.58301 13.167 7.58301V7.58301ZM13.167 15.9163C12.1724 15.9163 11.2186 15.5213 10.5153 14.818C9.81208 14.1147 9.41699 13.1609 9.41699 12.1663C9.41699 11.1718 9.81208 10.218 10.5153 9.51469C11.2186 8.81143 12.1724 8.41634 13.167 8.41634C14.1616 8.41634 15.1154 8.81143 15.8186 9.51469C16.5219 10.218 16.917 11.1718 16.917 12.1663C16.917 13.1609 16.5219 14.1147 15.8186 14.818C15.1154 15.5213 14.1616 15.9163 13.167 15.9163ZM4.41699 5.91634C4.96953 5.91634 5.49943 5.69685 5.89013 5.30615C6.28083 4.91545 6.50033 4.38554 6.50033 3.83301C6.50033 3.28047 6.28083 2.75057 5.89013 2.35987C5.49943 1.96917 4.96953 1.74967 4.41699 1.74967C3.86446 1.74967 3.33455 1.96917 2.94385 2.35987C2.55315 2.75057 2.33366 3.28047 2.33366 3.83301C2.33366 4.38554 2.55315 4.91545 2.94385 5.30615C3.33455 5.69685 3.86446 5.91634 4.41699 5.91634V5.91634ZM4.83366 14.2497C5.38619 14.2497 5.9161 14.0302 6.3068 13.6395C6.6975 13.2488 6.91699 12.7189 6.91699 12.1663C6.91699 11.6138 6.6975 11.0839 6.3068 10.6932C5.9161 10.3025 5.38619 10.083 4.83366 10.083C4.28112 10.083 3.75122 10.3025 3.36052 10.6932C2.96982 11.0839 2.75033 11.6138 2.75033 12.1663C2.75033 12.7189 2.96982 13.2488 3.36052 13.6395C3.75122 14.0302 4.28112 14.2497 4.83366 14.2497ZM13.167 5.91634C13.7195 5.91634 14.2494 5.69685 14.6401 5.30615C15.0308 4.91545 15.2503 4.38554 15.2503 3.83301C15.2503 3.28047 15.0308 2.75057 14.6401 2.35987C14.2494 1.96917 13.7195 1.74967 13.167 1.74967C12.6145 1.74967 12.0846 1.96917 11.6939 2.35987C11.3032 2.75057 11.0837 3.28047 11.0837 3.83301C11.0837 4.38554 11.3032 4.91545 11.6939 5.30615C12.0846 5.69685 12.6145 5.91634 13.167 5.91634ZM13.167 14.2497C13.7195 14.2497 14.2494 14.0302 14.6401 13.6395C15.0308 13.2488 15.2503 12.7189 15.2503 12.1663C15.2503 11.6138 15.0308 11.0839 14.6401 10.6932C14.2494 10.3025 13.7195 10.083 13.167 10.083C12.6145 10.083 12.0846 10.3025 11.6939 10.6932C11.3032 11.0839 11.0837 11.6138 11.0837 12.1663C11.0837 12.7189 11.3032 13.2488 11.6939 13.6395C12.0846 14.0302 12.6145 14.2497 13.167 14.2497Z" fill="black"/>
</svg>
